<svg xmlns="http://www.w3.org/2000/svg" width="32" height="32" viewBox="0 0 64 64" fill="none">
  <defs>
    <filter id="ink">
      <feGaussianBlur in="SourceGraphic" stdDeviation="0.3"/>
    </filter>
    <filter id="eg">
      <feGaussianBlur in="SourceGraphic" stdDeviation="0.8" result="b"/>
      <feMerge><feMergeNode in="b"/><feMergeNode in="SourceGraphic"/></feMerge>
    </filter>
  </defs>
  <circle cx="32" cy="32" r="31" fill="#0f172a"/>
  <circle cx="32" cy="32" r="28" stroke="#94a3b8" stroke-width="0.35" fill="none" opacity="0.1"/>
  <!-- Whale A -->
  <g filter="url(#ink)">
    <path d="M46 14C42 7 33 5 26 8C22 10 18 14 16 18C22 13 30 9 38 10C42 11 45 12 46 14Z" fill="#cbd5e1" opacity="0.8"/>
    <path d="M16 18C13 15 10 14.5 7 13" stroke="#cbd5e1" stroke-width="2.2" stroke-linecap="round" fill="none" opacity="0.55"/>
    <path d="M16 18C13 21 10 22 7 23" stroke="#cbd5e1" stroke-width="2" stroke-linecap="round" fill="none" opacity="0.45"/>
    <path d="M30 7.5C29 5 27 4.5 25.5 5.5" stroke="#cbd5e1" stroke-width="1" stroke-linecap="round" fill="none" opacity="0.4"/>
    <path d="M37 13.5C35 16 33 17 31 17.5" stroke="#cbd5e1" stroke-width="1.1" stroke-linecap="round" fill="none" opacity="0.3"/>
    <circle cx="43.5" cy="12" r="1.3" fill="#7dd3fc" filter="url(#eg)"/>
  </g>
  <!-- Whale B -->
  <g filter="url(#ink)" transform="rotate(180 32 32)">
    <path d="M46 14C42 7 33 5 26 8C22 10 18 14 16 18C22 13 30 9 38 10C42 11 45 12 46 14Z" fill="#cbd5e1" opacity="0.8"/>
    <path d="M16 18C13 15 10 14.5 7 13" stroke="#cbd5e1" stroke-width="2.2" stroke-linecap="round" fill="none" opacity="0.55"/>
    <path d="M16 18C13 21 10 22 7 23" stroke="#cbd5e1" stroke-width="2" stroke-linecap="round" fill="none" opacity="0.45"/>
    <path d="M30 7.5C29 5 27 4.5 25.5 5.5" stroke="#cbd5e1" stroke-width="1" stroke-linecap="round" fill="none" opacity="0.4"/>
    <path d="M37 13.5C35 16 33 17 31 17.5" stroke="#cbd5e1" stroke-width="1.1" stroke-linecap="round" fill="none" opacity="0.3"/>
    <circle cx="43.5" cy="12" r="1.3" fill="#7dd3fc" filter="url(#eg)"/>
  </g>
  <circle cx="32" cy="32" r="1.4" fill="#7dd3fc" opacity="0.5"/>
</svg>
